# xmcd CD database file
#
# Track frame offsets:
#	150
#	22373
#	42933
#	63925
#	80773
#	102725
#	123623
#	148323
#	166475
#	191965
#
# Disc length: 2845 seconds
#
# Revision: 2
# Processed by: cddbd v1.4b41PL1 Copyright (c) Steve Scherf et al.
# Submitted via: Feurio! 1.52 - http://www.feurio.com
#
DISCID=a10b1b0a
DTITLE=Scott Richardson - Revelation Blues
DYEAR=1900
DGENRE=
TTITLE0=Revelation Blues
TTITLE1=Mystery Doll
TTITLE2=My Temptation
TTITLE3=Royal Blue Vibe
TTITLE4=Rockin´ To My End
TTITLE5=Womanizer
TTITLE6=Don´t Torture Me
TTITLE7=Soul Mine
TTITLE8=Burning Woman
TTITLE9=New Dodge City Blues
EXTD=
EXTT0=
EXTT1=
EXTT2=
EXTT3=
EXTT4=
EXTT5=
EXTT6=
EXTT7=
EXTT8=
EXTT9=
PLAYORDER=
